<svg width="100" height="100" viewBox="0 0 100 100" fill="none" xmlns="http://www.w3.org/2000/svg">
<rect width="100" height="100" rx="50" fill="#F8F8F8"/>
<rect x="5" y="5" width="90" height="90" rx="45" fill="#F8F8F8" stroke="#121212" stroke-width="4"/>
<circle cx="28" cy="67" r="10" fill="#121212"/>
<circle cx="72" cy="67" r="10" fill="#121212"/>
<ellipse cx="50" cy="46" rx="22" ry="28" fill="#121212"/>
<path d="M70 44C70 60.0163 61.0457 75 50 75C38.9543 75 30 60.0163 30 44C30 27.9837 38.9543 17 50 17C61.0457 17 70 27.9837 70 44Z" fill="#F8F8F8"/>
<rect x="46" y="40" width="8" height="15" fill="#121212"/>
<rect x="37" y="38" width="26" height="2" fill="#121212"/>
<rect x="48" y="37" width="4" height="16" fill="#F8F8F8"/>
<path d="M50.433 74.25C50.2406 74.5833 49.7594 74.5833 49.567 74.25L46.9689 69.75C46.7765 69.4167 47.017 69 47.4019 69L52.5981 69C52.983 69 53.2235 69.4167 53.0311 69.75L50.433 74.25Z" fill="#121212"/>
<path d="M40 56C40 56 40.1548 57.584 41.5 58C44.1266 58.8123 50 56 50 56C50 56 55.8238 58.6297 58.5 58C60.0324 57.6394 60 56 60 56C60 56 60.8284 58.1716 60 59C57.5 61.5 53.9489 60.5 50 60.5C46.0511 60.5 41.5 61.5 40 59C39.3972 57.9954 40 56 40 56Z" fill="#121212"/>
<rect x="49" y="55" width="2" height="7" fill="#F8F8F8"/>
</svg>
